<mxfile host="app.diagrams.net" agent="Mozilla/5.0 (Windows NT 10.0; Win64; x64) AppleWebKit/537.36 (KHTML, like Gecko) Chrome/136.0.0.0 Safari/537.36" version="27.0.9">
  <diagram name="Страница — 1" id="L4Ysqq5HvjJknsksCHLC">
    <mxGraphModel dx="1891" dy="1078" grid="1" gridSize="10" guides="1" tooltips="1" connect="1" arrows="1" fold="1" page="1" pageScale="1" pageWidth="827" pageHeight="1169" math="0" shadow="0">
      <root>
        <mxCell id="0" />
        <mxCell id="1" parent="0" />
        <mxCell id="pdy1r5dSs08qO7FJDdeB-110" style="edgeStyle=orthogonalEdgeStyle;rounded=0;orthogonalLoop=1;jettySize=auto;html=1;" parent="1" source="pdy1r5dSs08qO7FJDdeB-98" target="pdy1r5dSs08qO7FJDdeB-106" edge="1">
          <mxGeometry relative="1" as="geometry" />
        </mxCell>
        <mxCell id="pdy1r5dSs08qO7FJDdeB-98" value="&lt;font style=&quot;background-color: light-dark(#ffffff, var(--ge-dark-color, #121212));&quot;&gt;Начало&lt;/font&gt;&lt;div&gt;&lt;span&gt;&lt;font&gt;&amp;nbsp;&lt;span&gt;&lt;span style=&quot;font-family: Consolas, &amp;quot;Courier New&amp;quot;, monospace; white-space: pre;&quot;&gt;read_data&lt;/span&gt;&lt;span style=&quot;font-family: Consolas, &amp;quot;Courier New&amp;quot;, monospace; white-space: pre;&quot;&gt;(&lt;/span&gt;&lt;span style=&quot;font-family: Consolas, &amp;quot;Courier New&amp;quot;, monospace; white-space: pre;&quot;&gt;const&lt;/span&gt;&lt;span style=&quot;font-family: Consolas, &amp;quot;Courier New&amp;quot;, monospace; white-space: pre;&quot;&gt; &lt;/span&gt;&lt;span style=&quot;font-family: Consolas, &amp;quot;Courier New&amp;quot;, monospace; white-space: pre;&quot;&gt;char&lt;/span&gt;&lt;span style=&quot;font-family: Consolas, &amp;quot;Courier New&amp;quot;, monospace; white-space: pre;&quot;&gt; &lt;/span&gt;&lt;span style=&quot;font-family: Consolas, &amp;quot;Courier New&amp;quot;, monospace; white-space: pre;&quot;&gt;*&lt;/span&gt;&lt;span style=&quot;font-family: Consolas, &amp;quot;Courier New&amp;quot;, monospace; white-space: pre;&quot;&gt;filename&lt;/span&gt;&lt;span style=&quot;font-family: Consolas, &amp;quot;Courier New&amp;quot;, monospace; white-space: pre;&quot;&gt;, &lt;/span&gt;&lt;/span&gt;&lt;/font&gt;&lt;/span&gt;&lt;/div&gt;&lt;div&gt;&lt;span&gt;&lt;font&gt;&lt;span&gt;&lt;span style=&quot;font-family: Consolas, &amp;quot;Courier New&amp;quot;, monospace; white-space: pre;&quot;&gt;Plane&lt;/span&gt;&lt;span style=&quot;font-family: Consolas, &amp;quot;Courier New&amp;quot;, monospace; white-space: pre;&quot;&gt; &lt;/span&gt;&lt;span style=&quot;font-family: Consolas, &amp;quot;Courier New&amp;quot;, monospace; white-space: pre;&quot;&gt;*&lt;/span&gt;&lt;span style=&quot;font-family: Consolas, &amp;quot;Courier New&amp;quot;, monospace; white-space: pre;&quot;&gt;planes&lt;/span&gt;&lt;span style=&quot;font-family: Consolas, &amp;quot;Courier New&amp;quot;, monospace; white-space: pre;&quot;&gt;, &lt;/span&gt;&lt;span style=&quot;font-family: Consolas, &amp;quot;Courier New&amp;quot;, monospace; white-space: pre;&quot;&gt;int&lt;/span&gt;&lt;span style=&quot;font-family: Consolas, &amp;quot;Courier New&amp;quot;, monospace; white-space: pre;&quot;&gt; &lt;/span&gt;&lt;span style=&quot;font-family: Consolas, &amp;quot;Courier New&amp;quot;, monospace; white-space: pre;&quot;&gt;*&lt;/span&gt;&lt;span style=&quot;font-family: Consolas, &amp;quot;Courier New&amp;quot;, monospace; white-space: pre;&quot;&gt;count&lt;/span&gt;&lt;span style=&quot;font-family: Consolas, &amp;quot;Courier New&amp;quot;, monospace; white-space: pre;&quot;&gt;, &lt;/span&gt;&lt;/span&gt;&lt;/font&gt;&lt;/span&gt;&lt;/div&gt;&lt;div&gt;&lt;span&gt;&lt;font&gt;&lt;span&gt;&lt;span style=&quot;font-family: Consolas, &amp;quot;Courier New&amp;quot;, monospace; white-space: pre;&quot;&gt;ErrorInfo&lt;/span&gt;&lt;span style=&quot;font-family: Consolas, &amp;quot;Courier New&amp;quot;, monospace; white-space: pre;&quot;&gt; &lt;/span&gt;&lt;span style=&quot;font-family: Consolas, &amp;quot;Courier New&amp;quot;, monospace; white-space: pre;&quot;&gt;*&lt;/span&gt;&lt;span style=&quot;font-family: Consolas, &amp;quot;Courier New&amp;quot;, monospace; white-space: pre;&quot;&gt;errors&lt;/span&gt;&lt;span style=&quot;font-family: Consolas, &amp;quot;Courier New&amp;quot;, monospace; white-space: pre;&quot;&gt;, &lt;/span&gt;&lt;span style=&quot;font-family: Consolas, &amp;quot;Courier New&amp;quot;, monospace; white-space: pre;&quot;&gt;int&lt;/span&gt;&lt;span style=&quot;font-family: Consolas, &amp;quot;Courier New&amp;quot;, monospace; white-space: pre;&quot;&gt; &lt;/span&gt;&lt;span style=&quot;font-family: Consolas, &amp;quot;Courier New&amp;quot;, monospace; white-space: pre;&quot;&gt;*&lt;/span&gt;&lt;span style=&quot;font-family: Consolas, &amp;quot;Courier New&amp;quot;, monospace; white-space: pre;&quot;&gt;error_count&lt;/span&gt;&lt;span style=&quot;font-family: Consolas, &amp;quot;Courier New&amp;quot;, monospace; white-space: pre;&quot;&gt;)&lt;/span&gt;&lt;/span&gt;&lt;/font&gt;&lt;/span&gt;&lt;/div&gt;" style="rounded=1;whiteSpace=wrap;html=1;arcSize=50;fontFamily=Consolas;fontSize=14;" parent="1" vertex="1">
          <mxGeometry x="90" y="50" width="280" height="90" as="geometry" />
        </mxCell>
        <mxCell id="pdy1r5dSs08qO7FJDdeB-122" style="edgeStyle=orthogonalEdgeStyle;rounded=0;orthogonalLoop=1;jettySize=auto;html=1;" parent="1" source="pdy1r5dSs08qO7FJDdeB-106" target="pdy1r5dSs08qO7FJDdeB-118" edge="1">
          <mxGeometry relative="1" as="geometry" />
        </mxCell>
        <mxCell id="pdy1r5dSs08qO7FJDdeB-106" value="&lt;div style=&quot;line-height: 19px; white-space: pre;&quot;&gt;&lt;div style=&quot;line-height: 19px;&quot;&gt;&lt;div style=&quot;line-height: 19px;&quot;&gt;&lt;span style=&quot;color: rgb(51, 51, 51); font-size: 12px; white-space-collapse: collapse;&quot;&gt;&lt;font face=&quot;Consolas, Monaco, Andale Mono, Ubuntu Mono, monospace&quot;&gt;Длина ==&lt;/font&gt;&lt;/span&gt;&lt;/div&gt;&lt;div style=&quot;line-height: 19px;&quot;&gt;&lt;span style=&quot;color: rgb(51, 51, 51); font-size: 12px; white-space-collapse: collapse;&quot;&gt;&lt;font face=&quot;Consolas, Monaco, Andale Mono, Ubuntu Mono, monospace&quot;&gt;&amp;nbsp;EXPECTED_TIME_LEN?&lt;/font&gt;&lt;/span&gt;&lt;/div&gt;&lt;/div&gt;&lt;/div&gt;" style="rhombus;whiteSpace=wrap;html=1;rounded=1;strokeColor=default;align=center;verticalAlign=middle;arcSize=0;fontFamily=Consolas;fontSize=14;fontColor=default;fillColor=default;" parent="1" vertex="1">
          <mxGeometry x="154.25" y="164" width="151.5" height="76" as="geometry" />
        </mxCell>
        <mxCell id="pdy1r5dSs08qO7FJDdeB-107" value="Нет" style="text;html=1;align=center;verticalAlign=middle;resizable=0;points=[];autosize=1;strokeColor=none;fillColor=none;" parent="1" vertex="1">
          <mxGeometry x="120" y="163.25" width="40" height="30" as="geometry" />
        </mxCell>
        <mxCell id="pdy1r5dSs08qO7FJDdeB-108" value="Да" style="text;html=1;align=center;verticalAlign=middle;resizable=0;points=[];autosize=1;strokeColor=none;fillColor=none;" parent="1" vertex="1">
          <mxGeometry x="240" y="225" width="40" height="30" as="geometry" />
        </mxCell>
        <mxCell id="pdy1r5dSs08qO7FJDdeB-112" value="" style="edgeStyle=orthogonalEdgeStyle;rounded=0;orthogonalLoop=1;jettySize=auto;html=1;" parent="1" source="pdy1r5dSs08qO7FJDdeB-106" target="pdy1r5dSs08qO7FJDdeB-109" edge="1">
          <mxGeometry relative="1" as="geometry">
            <mxPoint x="205.75" y="350" as="targetPoint" />
            <Array as="points" />
            <mxPoint x="130" y="202" as="sourcePoint" />
          </mxGeometry>
        </mxCell>
        <mxCell id="pdy1r5dSs08qO7FJDdeB-163" style="edgeStyle=orthogonalEdgeStyle;rounded=0;orthogonalLoop=1;jettySize=auto;html=1;entryX=0.5;entryY=0;entryDx=0;entryDy=0;" parent="1" source="pdy1r5dSs08qO7FJDdeB-109" target="pdy1r5dSs08qO7FJDdeB-134" edge="1">
          <mxGeometry relative="1" as="geometry" />
        </mxCell>
        <mxCell id="pdy1r5dSs08qO7FJDdeB-109" value="&lt;div style=&quot;font-family: Consolas, &amp;quot;Courier New&amp;quot;, monospace; line-height: 19px; white-space: pre;&quot;&gt;&lt;div style=&quot;&quot;&gt;Добавляем ошибку &lt;/div&gt;&lt;div style=&quot;&quot;&gt;&quot;&lt;span&gt;&lt;font style=&quot;color: rgb(0, 0, 0);&quot;&gt;Неправильная длина&lt;/font&gt;&lt;/span&gt;&lt;span style=&quot;background-color: transparent; color: light-dark(rgb(0, 0, 0), rgb(255, 255, 255));&quot;&gt;&quot;&lt;/span&gt;&lt;br&gt;&lt;/div&gt;&lt;/div&gt;" style="whiteSpace=wrap;html=1;fontSize=14;fontFamily=Consolas;rounded=1;arcSize=0;" parent="1" vertex="1">
          <mxGeometry x="-60" y="167" width="160" height="70" as="geometry" />
        </mxCell>
        <mxCell id="pdy1r5dSs08qO7FJDdeB-139" style="edgeStyle=orthogonalEdgeStyle;rounded=0;orthogonalLoop=1;jettySize=auto;html=1;" parent="1" source="pdy1r5dSs08qO7FJDdeB-118" target="pdy1r5dSs08qO7FJDdeB-127" edge="1">
          <mxGeometry relative="1" as="geometry" />
        </mxCell>
        <mxCell id="pdy1r5dSs08qO7FJDdeB-161" style="edgeStyle=orthogonalEdgeStyle;rounded=0;orthogonalLoop=1;jettySize=auto;html=1;" parent="1" source="pdy1r5dSs08qO7FJDdeB-118" target="pdy1r5dSs08qO7FJDdeB-121" edge="1">
          <mxGeometry relative="1" as="geometry" />
        </mxCell>
        <mxCell id="pdy1r5dSs08qO7FJDdeB-118" value="&lt;div style=&quot;font-family: Consolas, &amp;quot;Courier New&amp;quot;, monospace; line-height: 19px; white-space: pre;&quot;&gt;&lt;div style=&quot;line-height: 19px;&quot;&gt;&lt;div style=&quot;line-height: 19px;&quot;&gt;&lt;div style=&quot;line-height: 19px;&quot;&gt;&lt;span&gt;&lt;font style=&quot;color: rgb(0, 0, 0);&quot;&gt;time[2] == &#39;:&#39;?&lt;/font&gt;&lt;/span&gt;&lt;/div&gt;&lt;/div&gt;&lt;/div&gt;&lt;/div&gt;" style="rhombus;whiteSpace=wrap;html=1;rounded=1;strokeColor=default;align=center;verticalAlign=middle;arcSize=0;fontFamily=Consolas;fontSize=14;fontColor=default;fillColor=default;" parent="1" vertex="1">
          <mxGeometry x="154.25" y="282.5" width="151.5" height="76" as="geometry" />
        </mxCell>
        <mxCell id="pdy1r5dSs08qO7FJDdeB-120" value="Да" style="text;html=1;align=center;verticalAlign=middle;resizable=0;points=[];autosize=1;strokeColor=none;fillColor=none;" parent="1" vertex="1">
          <mxGeometry x="240" y="345" width="40" height="30" as="geometry" />
        </mxCell>
        <mxCell id="pdy1r5dSs08qO7FJDdeB-164" style="edgeStyle=orthogonalEdgeStyle;rounded=0;orthogonalLoop=1;jettySize=auto;html=1;" parent="1" source="pdy1r5dSs08qO7FJDdeB-121" edge="1">
          <mxGeometry relative="1" as="geometry">
            <mxPoint x="-130" y="320" as="targetPoint" />
          </mxGeometry>
        </mxCell>
        <mxCell id="pdy1r5dSs08qO7FJDdeB-121" value="&lt;div style=&quot;font-family: Consolas, &amp;quot;Courier New&amp;quot;, monospace; line-height: 19px; white-space: pre;&quot;&gt;&lt;div style=&quot;&quot;&gt;Добавляем ошибку &lt;/div&gt;&lt;div style=&quot;&quot;&gt;&quot;&lt;span&gt;&lt;font style=&quot;color: rgb(0, 0, 0);&quot;&gt;Неправильный разделитель&lt;/font&gt;&lt;/span&gt;&lt;span style=&quot;background-color: transparent; color: light-dark(rgb(0, 0, 0), rgb(255, 255, 255));&quot;&gt;&quot;&lt;/span&gt;&lt;br&gt;&lt;/div&gt;&lt;/div&gt;" style="whiteSpace=wrap;html=1;fontSize=14;fontFamily=Consolas;rounded=1;arcSize=0;" parent="1" vertex="1">
          <mxGeometry x="-60" y="285" width="160" height="70" as="geometry" />
        </mxCell>
        <mxCell id="pdy1r5dSs08qO7FJDdeB-141" style="edgeStyle=orthogonalEdgeStyle;rounded=0;orthogonalLoop=1;jettySize=auto;html=1;" parent="1" source="pdy1r5dSs08qO7FJDdeB-127" target="pdy1r5dSs08qO7FJDdeB-140" edge="1">
          <mxGeometry relative="1" as="geometry" />
        </mxCell>
        <mxCell id="pdy1r5dSs08qO7FJDdeB-127" value="&lt;div style=&quot;font-family: Consolas, &amp;quot;Courier New&amp;quot;, monospace; line-height: 19px; white-space: pre;&quot;&gt;&lt;div style=&quot;line-height: 19px;&quot;&gt;&lt;div style=&quot;line-height: 19px;&quot;&gt;&lt;div style=&quot;line-height: 19px;&quot;&gt;&lt;div style=&quot;line-height: 19px;&quot;&gt;&lt;span&gt;&lt;font style=&quot;color: rgb(0, 0, 0);&quot;&gt;Все символы цифры&lt;/font&gt;&lt;/span&gt;&lt;/div&gt;&lt;div style=&quot;line-height: 19px;&quot;&gt;&lt;span&gt;&lt;font style=&quot;color: rgb(0, 0, 0);&quot;&gt; (кроме позиции 2)?&lt;/font&gt;&lt;/span&gt;&lt;/div&gt;&lt;/div&gt;&lt;/div&gt;&lt;/div&gt;&lt;/div&gt;" style="rhombus;whiteSpace=wrap;html=1;rounded=1;strokeColor=default;align=center;verticalAlign=middle;arcSize=0;fontFamily=Consolas;fontSize=14;fontColor=default;fillColor=default;" parent="1" vertex="1">
          <mxGeometry x="154.25" y="392" width="151.5" height="76" as="geometry" />
        </mxCell>
        <mxCell id="pdy1r5dSs08qO7FJDdeB-131" value="" style="edgeStyle=orthogonalEdgeStyle;rounded=0;orthogonalLoop=1;jettySize=auto;html=1;" parent="1" source="pdy1r5dSs08qO7FJDdeB-127" target="pdy1r5dSs08qO7FJDdeB-133" edge="1">
          <mxGeometry relative="1" as="geometry">
            <mxPoint x="205.75" y="577" as="targetPoint" />
            <Array as="points" />
            <mxPoint x="130.00000000000045" y="429.9999999999998" as="sourcePoint" />
          </mxGeometry>
        </mxCell>
        <mxCell id="pdy1r5dSs08qO7FJDdeB-165" style="edgeStyle=orthogonalEdgeStyle;rounded=0;orthogonalLoop=1;jettySize=auto;html=1;" parent="1" source="pdy1r5dSs08qO7FJDdeB-133" edge="1">
          <mxGeometry relative="1" as="geometry">
            <mxPoint x="-130" y="430" as="targetPoint" />
          </mxGeometry>
        </mxCell>
        <mxCell id="pdy1r5dSs08qO7FJDdeB-133" value="&lt;div style=&quot;font-family: Consolas, &amp;quot;Courier New&amp;quot;, monospace; line-height: 19px; white-space: pre;&quot;&gt;&lt;div style=&quot;&quot;&gt;Добавляем ошибку &lt;/div&gt;&lt;div style=&quot;&quot;&gt;&quot;&lt;span&gt;&lt;font style=&quot;color: rgb(0, 0, 0);&quot;&gt;Недопустимый символ&lt;/font&gt;&lt;/span&gt;&lt;span style=&quot;background-color: transparent; color: light-dark(rgb(0, 0, 0), rgb(255, 255, 255));&quot;&gt;&quot;&lt;/span&gt;&lt;br&gt;&lt;/div&gt;&lt;/div&gt;" style="whiteSpace=wrap;html=1;fontSize=14;fontFamily=Consolas;rounded=1;arcSize=0;" parent="1" vertex="1">
          <mxGeometry x="-60" y="395" width="160" height="70" as="geometry" />
        </mxCell>
        <mxCell id="pdy1r5dSs08qO7FJDdeB-134" value="return -1" style="whiteSpace=wrap;html=1;fontSize=14;fontFamily=Consolas;rounded=1;arcSize=50;" parent="1" vertex="1">
          <mxGeometry x="-190" y="909" width="120" height="60" as="geometry" />
        </mxCell>
        <mxCell id="pdy1r5dSs08qO7FJDdeB-135" value="Нет" style="text;html=1;align=center;verticalAlign=middle;resizable=0;points=[];autosize=1;strokeColor=none;fillColor=none;" parent="1" vertex="1">
          <mxGeometry x="130" y="393.5" width="40" height="30" as="geometry" />
        </mxCell>
        <mxCell id="pdy1r5dSs08qO7FJDdeB-138" value="Да" style="text;html=1;align=center;verticalAlign=middle;resizable=0;points=[];autosize=1;strokeColor=none;fillColor=none;" parent="1" vertex="1">
          <mxGeometry x="240" y="460" width="40" height="30" as="geometry" />
        </mxCell>
        <mxCell id="pdy1r5dSs08qO7FJDdeB-144" style="edgeStyle=orthogonalEdgeStyle;rounded=0;orthogonalLoop=1;jettySize=auto;html=1;" parent="1" source="pdy1r5dSs08qO7FJDdeB-140" target="pdy1r5dSs08qO7FJDdeB-142" edge="1">
          <mxGeometry relative="1" as="geometry" />
        </mxCell>
        <mxCell id="pdy1r5dSs08qO7FJDdeB-140" value="&lt;div style=&quot;font-family: Consolas, &amp;quot;Courier New&amp;quot;, monospace; line-height: 19px; white-space: pre;&quot;&gt;&lt;div style=&quot;&quot;&gt;Вычисляем часы &lt;/div&gt;&lt;div style=&quot;&quot;&gt;и минуты&lt;/div&gt;&lt;/div&gt;" style="whiteSpace=wrap;html=1;fontSize=14;fontFamily=Consolas;rounded=1;arcSize=0;" parent="1" vertex="1">
          <mxGeometry x="150" y="515" width="160" height="70" as="geometry" />
        </mxCell>
        <mxCell id="pdy1r5dSs08qO7FJDdeB-145" style="edgeStyle=orthogonalEdgeStyle;rounded=0;orthogonalLoop=1;jettySize=auto;html=1;" parent="1" source="pdy1r5dSs08qO7FJDdeB-142" target="pdy1r5dSs08qO7FJDdeB-143" edge="1">
          <mxGeometry relative="1" as="geometry" />
        </mxCell>
        <mxCell id="pdy1r5dSs08qO7FJDdeB-162" style="edgeStyle=orthogonalEdgeStyle;rounded=0;orthogonalLoop=1;jettySize=auto;html=1;" parent="1" source="pdy1r5dSs08qO7FJDdeB-142" target="pdy1r5dSs08qO7FJDdeB-149" edge="1">
          <mxGeometry relative="1" as="geometry" />
        </mxCell>
        <mxCell id="pdy1r5dSs08qO7FJDdeB-142" value="&lt;div style=&quot;font-family: Consolas, &amp;quot;Courier New&amp;quot;, monospace; line-height: 19px; white-space: pre;&quot;&gt;&lt;div style=&quot;line-height: 19px;&quot;&gt;&lt;div style=&quot;line-height: 19px;&quot;&gt;&lt;div style=&quot;line-height: 19px;&quot;&gt;&lt;div style=&quot;line-height: 19px;&quot;&gt;&lt;div style=&quot;line-height: 19px;&quot;&gt;&lt;span&gt;&lt;font style=&quot;color: rgb(0, 0, 0);&quot;&gt;0 &amp;lt;= hours &amp;lt; 24?&lt;/font&gt;&lt;/span&gt;&lt;/div&gt;&lt;/div&gt;&lt;/div&gt;&lt;/div&gt;&lt;/div&gt;&lt;/div&gt;" style="rhombus;whiteSpace=wrap;html=1;rounded=1;strokeColor=default;align=center;verticalAlign=middle;arcSize=0;fontFamily=Consolas;fontSize=14;fontColor=default;fillColor=default;" parent="1" vertex="1">
          <mxGeometry x="154.25" y="620" width="151.5" height="76" as="geometry" />
        </mxCell>
        <mxCell id="pdy1r5dSs08qO7FJDdeB-159" style="edgeStyle=orthogonalEdgeStyle;rounded=0;orthogonalLoop=1;jettySize=auto;html=1;" parent="1" source="pdy1r5dSs08qO7FJDdeB-143" target="pdy1r5dSs08qO7FJDdeB-158" edge="1">
          <mxGeometry relative="1" as="geometry" />
        </mxCell>
        <mxCell id="pdy1r5dSs08qO7FJDdeB-143" value="&lt;div style=&quot;font-family: Consolas, &amp;quot;Courier New&amp;quot;, monospace; line-height: 19px; white-space: pre;&quot;&gt;&lt;div style=&quot;line-height: 19px;&quot;&gt;&lt;div style=&quot;line-height: 19px;&quot;&gt;&lt;div style=&quot;line-height: 19px;&quot;&gt;&lt;div style=&quot;line-height: 19px;&quot;&gt;&lt;div style=&quot;line-height: 19px;&quot;&gt;&lt;div style=&quot;line-height: 19px;&quot;&gt;&lt;span&gt;&lt;font style=&quot;color: rgb(0, 0, 0);&quot;&gt;0 &amp;lt;= minutes &amp;lt; 60?&lt;/font&gt;&lt;/span&gt;&lt;/div&gt;&lt;/div&gt;&lt;/div&gt;&lt;/div&gt;&lt;/div&gt;&lt;/div&gt;&lt;/div&gt;" style="rhombus;whiteSpace=wrap;html=1;rounded=1;strokeColor=default;align=center;verticalAlign=middle;arcSize=0;fontFamily=Consolas;fontSize=14;fontColor=default;fillColor=default;" parent="1" vertex="1">
          <mxGeometry x="154.25" y="735" width="151.5" height="76" as="geometry" />
        </mxCell>
        <mxCell id="pdy1r5dSs08qO7FJDdeB-147" value="Нет" style="text;html=1;align=center;verticalAlign=middle;resizable=0;points=[];autosize=1;strokeColor=none;fillColor=none;" parent="1" vertex="1">
          <mxGeometry x="130" y="620" width="40" height="30" as="geometry" />
        </mxCell>
        <mxCell id="pdy1r5dSs08qO7FJDdeB-166" style="edgeStyle=orthogonalEdgeStyle;rounded=0;orthogonalLoop=1;jettySize=auto;html=1;" parent="1" source="pdy1r5dSs08qO7FJDdeB-149" edge="1">
          <mxGeometry relative="1" as="geometry">
            <mxPoint x="-130" y="658" as="targetPoint" />
          </mxGeometry>
        </mxCell>
        <mxCell id="pdy1r5dSs08qO7FJDdeB-149" value="&lt;div style=&quot;font-family: Consolas, &amp;quot;Courier New&amp;quot;, monospace; line-height: 19px; white-space: pre;&quot;&gt;&lt;div style=&quot;&quot;&gt;Добавляем ошибку &lt;/div&gt;&lt;div style=&quot;&quot;&gt;&quot;&lt;span&gt;&lt;font style=&quot;color: rgb(0, 0, 0);&quot;&gt;Часы должны быть в&lt;/font&gt;&lt;/span&gt;&lt;/div&gt;&lt;div style=&quot;&quot;&gt;&lt;span&gt;&lt;font style=&quot;color: rgb(0, 0, 0);&quot;&gt; диапазоне 00-23&lt;/font&gt;&lt;/span&gt;&lt;span style=&quot;background-color: transparent; color: light-dark(rgb(0, 0, 0), rgb(255, 255, 255));&quot;&gt;&quot;&lt;/span&gt;&lt;br&gt;&lt;/div&gt;&lt;/div&gt;" style="whiteSpace=wrap;html=1;fontSize=14;fontFamily=Consolas;rounded=1;arcSize=0;" parent="1" vertex="1">
          <mxGeometry x="-50" y="623" width="160" height="70" as="geometry" />
        </mxCell>
        <mxCell id="pdy1r5dSs08qO7FJDdeB-151" value="" style="edgeStyle=orthogonalEdgeStyle;rounded=0;orthogonalLoop=1;jettySize=auto;html=1;" parent="1" source="pdy1r5dSs08qO7FJDdeB-143" target="pdy1r5dSs08qO7FJDdeB-153" edge="1">
          <mxGeometry relative="1" as="geometry">
            <mxPoint x="225.75" y="915.25" as="targetPoint" />
            <Array as="points" />
            <mxPoint x="174" y="768.25" as="sourcePoint" />
          </mxGeometry>
        </mxCell>
        <mxCell id="pdy1r5dSs08qO7FJDdeB-167" style="edgeStyle=orthogonalEdgeStyle;rounded=0;orthogonalLoop=1;jettySize=auto;html=1;" parent="1" source="pdy1r5dSs08qO7FJDdeB-153" edge="1">
          <mxGeometry relative="1" as="geometry">
            <mxPoint x="-130" y="773" as="targetPoint" />
          </mxGeometry>
        </mxCell>
        <mxCell id="pdy1r5dSs08qO7FJDdeB-153" value="&lt;div style=&quot;font-family: Consolas, &amp;quot;Courier New&amp;quot;, monospace; line-height: 19px; white-space: pre;&quot;&gt;&lt;div style=&quot;&quot;&gt;Добавляем ошибку &lt;/div&gt;&lt;div style=&quot;&quot;&gt;&quot;&lt;span&gt;&lt;font style=&quot;color: rgb(0, 0, 0);&quot;&gt;Недопустимый символ&lt;/font&gt;&lt;/span&gt;&lt;span style=&quot;background-color: transparent; color: light-dark(rgb(0, 0, 0), rgb(255, 255, 255));&quot;&gt;&quot;&lt;/span&gt;&lt;br&gt;&lt;/div&gt;&lt;/div&gt;" style="whiteSpace=wrap;html=1;fontSize=14;fontFamily=Consolas;rounded=1;arcSize=0;" parent="1" vertex="1">
          <mxGeometry x="-50" y="738" width="160" height="70" as="geometry" />
        </mxCell>
        <mxCell id="pdy1r5dSs08qO7FJDdeB-155" value="Да" style="text;html=1;align=center;verticalAlign=middle;resizable=0;points=[];autosize=1;strokeColor=none;fillColor=none;" parent="1" vertex="1">
          <mxGeometry x="240" y="798.25" width="40" height="30" as="geometry" />
        </mxCell>
        <mxCell id="pdy1r5dSs08qO7FJDdeB-156" value="Нет" style="text;html=1;align=center;verticalAlign=middle;resizable=0;points=[];autosize=1;strokeColor=none;fillColor=none;" parent="1" vertex="1">
          <mxGeometry x="130" y="731.75" width="40" height="30" as="geometry" />
        </mxCell>
        <mxCell id="pdy1r5dSs08qO7FJDdeB-157" value="Да" style="text;html=1;align=center;verticalAlign=middle;resizable=0;points=[];autosize=1;strokeColor=none;fillColor=none;" parent="1" vertex="1">
          <mxGeometry x="240" y="684.25" width="40" height="30" as="geometry" />
        </mxCell>
        <mxCell id="pdy1r5dSs08qO7FJDdeB-158" value="return minutes" style="whiteSpace=wrap;html=1;fontSize=14;fontFamily=Consolas;rounded=1;arcSize=50;" parent="1" vertex="1">
          <mxGeometry x="170" y="915.5" width="120" height="60" as="geometry" />
        </mxCell>
        <mxCell id="pdy1r5dSs08qO7FJDdeB-160" value="Нет" style="text;html=1;align=center;verticalAlign=middle;resizable=0;points=[];autosize=1;strokeColor=none;fillColor=none;" parent="1" vertex="1">
          <mxGeometry x="120" y="282.5" width="40" height="30" as="geometry" />
        </mxCell>
      </root>
    </mxGraphModel>
  </diagram>
</mxfile>
